<svg width="26" height="21" viewBox="0 0 26 21" fill="none" xmlns="http://www.w3.org/2000/svg">
<path d="M25.1609 2.95087C24.2363 3.36058 23.243 3.63741 22.1988 3.76254C23.2763 3.11785 24.0823 2.10318 24.4666 0.90786C23.4544 1.50912 22.3465 1.93235 21.1912 2.15913C20.4143 1.3296 19.3852 0.779772 18.2638 0.595013C17.1423 0.410254 15.9913 0.600901 14.9893 1.13736C13.9874 1.67381 13.1905 2.52606 12.7225 3.56178C12.2546 4.59751 12.1416 5.75876 12.4012 6.86525C10.3501 6.76227 8.34361 6.22915 6.51187 5.3005C4.68014 4.37185 3.06413 3.06842 1.76874 1.47481C1.32581 2.23886 1.07113 3.12472 1.07113 4.06816C1.07064 4.91747 1.27979 5.75377 1.68002 6.50286C2.08026 7.25196 2.65921 7.89068 3.3655 8.36235C2.54639 8.33629 1.74535 8.11496 1.02905 7.71678V7.78322C1.02897 8.97441 1.44101 10.129 2.19526 11.0509C2.94952 11.9729 3.99952 12.6055 5.16711 12.8415C4.40725 13.0471 3.61059 13.0774 2.83731 12.9301C3.16673 13.955 3.80843 14.8513 4.67255 15.4934C5.53667 16.1356 6.57997 16.4914 7.65638 16.5111C5.82911 17.9456 3.57245 18.7237 1.24941 18.7202C0.837907 18.7204 0.426753 18.6963 0.0180664 18.6483C2.37608 20.1644 5.12098 20.969 7.92435 20.9659C17.4141 20.9659 22.6019 13.1061 22.6019 6.28945C22.6019 6.06798 22.5964 5.8443 22.5864 5.62284C23.5955 4.89308 24.4665 3.98942 25.1587 2.95419L25.1609 2.95087Z" fill="white"/>
</svg>
