<svg width="30" height="22" viewBox="0 0 30 22" fill="none" xmlns="http://www.w3.org/2000/svg">
<path d="M14.67 8.35637C14.4567 8.15765 14.1747 8.04946 13.8832 8.0546C13.5918 8.05975 13.3137 8.17782 13.1076 8.38393C12.9014 8.59005 12.7834 8.86813 12.7782 9.15958C12.7731 9.45104 12.8813 9.7331 13.08 9.94637L14.16 11.0264L13.08 12.1064C12.9695 12.2094 12.8808 12.3336 12.8193 12.4716C12.7578 12.6096 12.7248 12.7585 12.7221 12.9096C12.7194 13.0606 12.7472 13.2107 12.8038 13.3508C12.8604 13.4908 12.9446 13.6181 13.0514 13.7249C13.1583 13.8318 13.2855 13.916 13.4256 13.9726C13.5657 14.0291 13.7157 14.0569 13.8668 14.0543C14.0178 14.0516 14.1668 14.0185 14.3048 13.957C14.4428 13.8956 14.567 13.8069 14.67 13.6964L15.75 12.6164L16.83 13.6964C17.0412 13.9072 17.3276 14.0255 17.6261 14.0252C17.9245 14.0249 18.2107 13.9061 18.4215 13.6949C18.6323 13.4836 18.7506 13.1973 18.7504 12.8988C18.7501 12.6003 18.6312 12.3142 18.42 12.1034L17.3415 11.0264L18.4215 9.94637C18.5289 9.84254 18.6145 9.71836 18.6734 9.58108C18.7323 9.4438 18.7633 9.29616 18.7645 9.14678C18.7658 8.99741 18.7372 8.84928 18.6806 8.71105C18.624 8.57282 18.5404 8.44725 18.4347 8.34167C18.329 8.23609 18.2034 8.15262 18.0651 8.09612C17.9268 8.03962 17.7786 8.01122 17.6293 8.01259C17.4799 8.01396 17.3323 8.04506 17.1951 8.10408C17.0578 8.16311 16.9337 8.24887 16.83 8.35637L15.75 9.43637L14.67 8.35637ZM4.83 8.35637C5.04094 8.14569 5.32687 8.02736 5.625 8.02736C5.92313 8.02736 6.20906 8.14569 6.42 8.35637L7.5 9.43637L8.58 8.35637C8.68299 8.24584 8.80719 8.15718 8.94519 8.0957C9.08319 8.03421 9.23216 8.00114 9.38322 7.99848C9.53427 7.99581 9.68431 8.0236 9.8244 8.08018C9.96448 8.13676 10.0917 8.22098 10.1986 8.32781C10.3054 8.43464 10.3896 8.56189 10.4462 8.70197C10.5028 8.84205 10.5306 8.9921 10.5279 9.14315C10.5252 9.2942 10.4922 9.44318 10.4307 9.58117C10.3692 9.71917 10.2805 9.84337 10.17 9.94637L9.0915 11.0264L10.1715 12.1034C10.2761 12.2079 10.3591 12.3319 10.4157 12.4685C10.4724 12.6051 10.5016 12.7515 10.5016 12.8993C10.5017 13.0472 10.4727 13.1936 10.4161 13.3302C10.3596 13.4669 10.2767 13.591 10.1722 13.6956C10.0677 13.8002 9.94367 13.8832 9.8071 13.9399C9.67053 13.9965 9.52413 14.0257 9.37628 14.0258C9.22843 14.0258 9.08201 13.9968 8.94538 13.9403C8.80875 13.8837 8.6846 13.8009 8.58 13.6964L7.5 12.6164L6.42 13.6964C6.20674 13.8951 5.92467 14.0033 5.63322 13.9981C5.34176 13.993 5.06369 13.8749 4.85757 13.6688C4.65145 13.4627 4.53338 13.1846 4.52824 12.8932C4.5231 12.6017 4.63128 12.3196 4.83 12.1064L5.91 11.0264L4.83 9.94637C4.61932 9.73543 4.50099 9.44949 4.50099 9.15137C4.50099 8.85324 4.61932 8.56731 4.83 8.35637ZM21.75 13.2764C21.4516 13.2764 21.1655 13.3949 20.9545 13.6059C20.7435 13.8169 20.625 14.103 20.625 14.4014C20.625 14.6997 20.7435 14.9859 20.9545 15.1969C21.1655 15.4078 21.4516 15.5264 21.75 15.5264H24.375C24.6734 15.5264 24.9595 15.4078 25.1705 15.1969C25.3815 14.9859 25.5 14.6997 25.5 14.4014C25.5 14.103 25.3815 13.8169 25.1705 13.6059C24.9595 13.3949 24.6734 13.2764 24.375 13.2764H21.75ZM4.875 0.526367C3.58207 0.526367 2.34209 1.03998 1.42785 1.95422C0.513614 2.86846 0 4.10844 0 5.40137V16.6514C0 17.9443 0.513614 19.1843 1.42785 20.0985C2.34209 21.0128 3.58207 21.5264 4.875 21.5264H25.125C25.7652 21.5264 26.3991 21.4003 26.9906 21.1553C27.582 20.9103 28.1195 20.5512 28.5721 20.0985C29.0248 19.6458 29.3839 19.1084 29.6289 18.5169C29.8739 17.9255 30 17.2916 30 16.6514V5.40137C30 4.76117 29.8739 4.12725 29.6289 3.53579C29.3839 2.94432 29.0248 2.40691 28.5721 1.95422C28.1195 1.50154 27.582 1.14245 26.9906 0.897455C26.3991 0.652463 25.7652 0.526367 25.125 0.526367H4.875ZM2.25 5.40137C2.25 3.95087 3.4245 2.77637 4.875 2.77637H25.125C26.5755 2.77637 27.75 3.95087 27.75 5.40137V16.6514C27.75 17.3476 27.4734 18.0152 26.9812 18.5075C26.4889 18.9998 25.8212 19.2764 25.125 19.2764H4.875C4.17881 19.2764 3.51113 18.9998 3.01884 18.5075C2.52656 18.0152 2.25 17.3476 2.25 16.6514V5.40137Z" fill="white"/>
</svg>
